<svg xmlns="http://www.w3.org/2000/svg"
 xmlns:xlink="http://www.w3.org/1999/xlink"
 version="1.2" baseProfile="tiny"
 text-rendering="geometricPrecision"
 preserveAspectRatio="xMidYMid meet"
 font-weight="normal"
 font-family="Helvetica"
 width="500" height="500"
 viewBox="0 0 379.28 195.76">
<rect x="0" y="0" width="379.28" height="195.76"
 fill="rgb(255, 255, 255)" opacity="0.0"/>
<line x1="108.49" y1="84.19" x2="103.65" y2="75.81" stroke="rgb(192, 192, 0)" />
<line x1="103.65" y1="75.81" x2="98.81" y2="67.43" stroke="rgb(255, 0, 0)" />
<line x1="104.59" y1="86.44" x2="99.75" y2="78.06" stroke="rgb(192, 192, 0)" />
<line x1="99.75" y1="78.06" x2="94.92" y2="69.68" stroke="rgb(255, 0, 0)" />
<line x1="239.50" y1="73.69" x2="226.01" y2="57.61" stroke="rgb(0, 0, 0)" /><line x1="288.66" y1="85.31" x2="297.13" y2="70.65" stroke="rgb(128, 64, 192)" />
<line x1="297.13" y1="70.65" x2="305.60" y2="55.98" stroke="rgb(0, 0, 0)" />
<line x1="239.50" y1="73.69" x2="197.60" y2="97.88" stroke="rgb(0, 0, 0)" /><line x1="155.70" y1="73.69" x2="142.21" y2="57.61" stroke="rgb(0, 0, 0)" /><line x1="274.15" y1="110.45" x2="265.68" y2="125.12" stroke="rgb(128, 64, 192)" />
<line x1="265.68" y1="125.12" x2="257.22" y2="139.78" stroke="rgb(0, 0, 0)" />
<line x1="119.11" y1="111.58" x2="123.95" y2="119.96" stroke="rgb(192, 192, 0)" />
<line x1="123.95" y1="119.96" x2="128.78" y2="128.34" stroke="rgb(255, 0, 0)" />
<line x1="123.00" y1="109.33" x2="127.84" y2="117.71" stroke="rgb(192, 192, 0)" />
<line x1="127.84" y1="117.71" x2="132.68" y2="126.09" stroke="rgb(255, 0, 0)" />
<line x1="305.60" y1="55.98" x2="287.41" y2="45.48" stroke="rgb(0, 0, 0)" /><line x1="197.60" y1="97.88" x2="211.10" y2="113.96" stroke="rgb(0, 0, 0)" /><line x1="197.60" y1="97.88" x2="155.70" y2="73.69" stroke="rgb(0, 0, 0)" /><line x1="305.60" y1="55.98" x2="323.78" y2="66.48" stroke="rgb(0, 0, 0)" /><line x1="323.31" y1="122.07" x2="341.49" y2="132.57" stroke="rgb(0, 0, 0)" /><line x1="257.22" y1="139.78" x2="239.03" y2="129.28" stroke="rgb(0, 0, 0)" /><line x1="239.50" y1="73.69" x2="253.00" y2="57.61" stroke="rgb(0, 0, 0)" /><line x1="305.60" y1="55.98" x2="316.10" y2="37.79" stroke="rgb(0, 0, 0)" /><line x1="323.31" y1="122.07" x2="333.80" y2="103.89" stroke="rgb(0, 0, 0)" /><line x1="257.22" y1="139.78" x2="246.72" y2="157.97" stroke="rgb(0, 0, 0)" /><line x1="293.98" y1="105.14" x2="308.64" y2="113.61" stroke="rgb(128, 64, 192)" />
<line x1="308.64" y1="113.61" x2="323.31" y2="122.07" stroke="rgb(0, 0, 0)" />
<line x1="155.70" y1="73.69" x2="169.20" y2="57.61" stroke="rgb(0, 0, 0)" /><line x1="126.37" y1="90.62" x2="141.04" y2="82.16" stroke="rgb(192, 192, 0)" />
<line x1="141.04" y1="82.16" x2="155.70" y2="73.69" stroke="rgb(0, 0, 0)" />
<line x1="268.84" y1="90.62" x2="254.17" y2="82.16" stroke="rgb(128, 64, 192)" />
<line x1="254.17" y1="82.16" x2="239.50" y2="73.69" stroke="rgb(0, 0, 0)" />
<line x1="257.22" y1="139.78" x2="275.40" y2="150.28" stroke="rgb(0, 0, 0)" /><line x1="197.60" y1="97.88" x2="184.11" y2="113.96" stroke="rgb(0, 0, 0)" /><line x1="323.31" y1="122.07" x2="312.81" y2="140.26" stroke="rgb(0, 0, 0)" /><line x1="101.23" y1="105.14" x2="92.85" y2="109.98" stroke="rgb(192, 192, 0)" />
<line x1="92.85" y1="109.98" x2="84.47" y2="114.81" stroke="rgb(255, 0, 0)" />
<text x="281.41" y="104.88" font-size="14.0"
 fill="rgb(128, 64, 192)" text-anchor="middle" >Si</text>
<text x="283.19" y="161.78" font-size="14.0"
 fill="rgb(0, 0, 0)" text-anchor="middle" >H</text>
<text x="30.00" y="104.88" font-size="14.0"
 fill="rgb(0, 192, 192)" text-anchor="middle" >Na<tspan baseline-shift="50%" font-size="10">+</tspan></text>
<text x="331.57" y="77.98" font-size="14.0"
 fill="rgb(0, 0, 0)" text-anchor="middle" >H</text>
<text x="220.22" y="57.71" font-size="14.0"
 fill="rgb(0, 0, 0)" text-anchor="middle" >H</text>
<text x="349.28" y="144.07" font-size="14.0"
 fill="rgb(0, 0, 0)" text-anchor="middle" >H</text>
<text x="216.88" y="127.86" font-size="14.0"
 fill="rgb(0, 0, 0)" text-anchor="middle" >H</text>
<text x="320.60" y="37.00" font-size="14.0"
 fill="rgb(0, 0, 0)" text-anchor="middle" >H</text>
<text x="174.98" y="57.71" font-size="14.0"
 fill="rgb(0, 0, 0)" text-anchor="middle" >H</text>
<text x="338.30" y="103.10" font-size="14.0"
 fill="rgb(0, 0, 0)" text-anchor="middle" >H</text>
<text x="308.31" y="155.05" font-size="14.0"
 fill="rgb(0, 0, 0)" text-anchor="middle" >H</text>
<text x="279.62" y="47.98" font-size="14.0"
 fill="rgb(0, 0, 0)" text-anchor="middle" >H</text>
<text x="137.99" y="146.78" font-size="14.0"
 fill="rgb(255, 0, 0)" text-anchor="middle" >O</text>
<text x="242.22" y="172.76" font-size="14.0"
 fill="rgb(0, 0, 0)" text-anchor="middle" >H</text>
<text x="71.90" y="129.07" font-size="14.0"
 fill="rgb(255, 0, 0)" text-anchor="middle" >O<tspan baseline-shift="50%" font-size="10">–</tspan></text>
<text x="89.61" y="62.98" font-size="14.0"
 fill="rgb(255, 0, 0)" text-anchor="middle" >O</text>
<text x="231.23" y="131.78" font-size="14.0"
 fill="rgb(0, 0, 0)" text-anchor="middle" >H</text>
<text x="258.79" y="57.71" font-size="14.0"
 fill="rgb(0, 0, 0)" text-anchor="middle" >H</text>
<text x="136.42" y="57.71" font-size="14.0"
 fill="rgb(0, 0, 0)" text-anchor="middle" >H</text>
<text x="178.32" y="127.86" font-size="14.0"
 fill="rgb(0, 0, 0)" text-anchor="middle" >H</text>
<text x="113.80" y="104.88" font-size="14.0"
 fill="rgb(192, 192, 0)" text-anchor="middle" >S</text>
<g>
 <rect x="258.79" y="57.71" width="10" height="10" rx="5.0" ry="5.0" fill="rgb(240, 240, 255)" />
 <text x="258.79" y="67.71" font-size="10" fill="rgb(0, 0, 0)">1</text>
</g>
<g>
 <rect x="220.22" y="57.71" width="10" height="10" rx="5.0" ry="5.0" fill="rgb(240, 240, 255)" />
 <text x="220.22" y="67.71" font-size="10" fill="rgb(0, 0, 0)">2</text>
</g>
<g>
 <rect x="178.32" y="127.86" width="10" height="10" rx="5.0" ry="5.0" fill="rgb(240, 240, 255)" />
 <text x="178.32" y="137.86" font-size="10" fill="rgb(0, 0, 0)">3</text>
</g>
<g>
 <rect x="216.88" y="127.86" width="10" height="10" rx="5.0" ry="5.0" fill="rgb(240, 240, 255)" />
 <text x="216.88" y="137.86" font-size="10" fill="rgb(0, 0, 0)">4</text>
</g>
<g>
 <rect x="308.31" y="155.05" width="10" height="10" rx="5.0" ry="5.0" fill="rgb(240, 240, 255)" />
 <text x="308.31" y="165.05" font-size="10" fill="rgb(0, 0, 0)">5</text>
</g>
<g>
 <rect x="349.28" y="144.07" width="10" height="10" rx="5.0" ry="5.0" fill="rgb(240, 240, 255)" />
 <text x="349.28" y="154.07" font-size="10" fill="rgb(0, 0, 0)">6</text>
</g>
<g>
 <rect x="338.30" y="103.10" width="10" height="10" rx="5.0" ry="5.0" fill="rgb(240, 240, 255)" />
 <text x="338.30" y="113.10" font-size="10" fill="rgb(0, 0, 0)">7</text>
</g>
<g>
 <rect x="331.57" y="77.98" width="10" height="10" rx="5.0" ry="5.0" fill="rgb(240, 240, 255)" />
 <text x="331.57" y="87.98" font-size="10" fill="rgb(0, 0, 0)">8</text>
</g>
<g>
 <rect x="320.60" y="37.00" width="10" height="10" rx="5.0" ry="5.0" fill="rgb(240, 240, 255)" />
 <text x="320.60" y="47.00" font-size="10" fill="rgb(0, 0, 0)">9</text>
</g>
<g>
 <rect x="279.62" y="47.98" width="10" height="10" rx="5.0" ry="5.0" fill="rgb(240, 240, 255)" />
 <text x="279.62" y="57.98" font-size="10" fill="rgb(0, 0, 0)">10</text>
</g>
<g>
 <rect x="231.23" y="131.78" width="10" height="10" rx="5.0" ry="5.0" fill="rgb(240, 240, 255)" />
 <text x="231.23" y="141.78" font-size="10" fill="rgb(0, 0, 0)">11</text>
</g>
<g>
 <rect x="242.22" y="172.76" width="10" height="10" rx="5.0" ry="5.0" fill="rgb(240, 240, 255)" />
 <text x="242.22" y="182.76" font-size="10" fill="rgb(0, 0, 0)">12</text>
</g>
<g>
 <rect x="283.19" y="161.78" width="10" height="10" rx="5.0" ry="5.0" fill="rgb(240, 240, 255)" />
 <text x="283.19" y="171.78" font-size="10" fill="rgb(0, 0, 0)">13</text>
</g>
<g>
 <rect x="174.98" y="57.71" width="10" height="10" rx="5.0" ry="5.0" fill="rgb(240, 240, 255)" />
 <text x="174.98" y="67.71" font-size="10" fill="rgb(0, 0, 0)">14</text>
</g>
<g>
 <rect x="136.42" y="57.71" width="10" height="10" rx="5.0" ry="5.0" fill="rgb(240, 240, 255)" />
 <text x="136.42" y="67.71" font-size="10" fill="rgb(0, 0, 0)">15</text>
</g>
</svg>
